<svg width="56" height="58" viewBox="0 0 56 58" fill="none" xmlns="http://www.w3.org/2000/svg">
<path d="M29.8264 1.08759C29.0676 0.386628 28.072 -0.00182626 27.039 6.45555e-06C25.9023 6.45555e-06 24.8716 0.45984 24.1276 1.20642L0.875 24.459V57.0633H22.1875V36.7195H33.8125V57.0633H55.125V24.3634L29.8264 1.08759ZM51.25 53.1883H37.6875V36.7195C37.6875 35.6918 37.2792 34.7062 36.5525 33.9795C35.8258 33.2528 34.8402 32.8445 33.8125 32.8445H22.1875C21.1598 32.8445 20.1742 33.2528 19.4475 33.9795C18.7208 34.7062 18.3125 35.6918 18.3125 36.7195V53.1883H4.75V26.0633L26.8659 3.94734C26.8883 3.92495 26.9149 3.90725 26.9441 3.89527C26.9734 3.8833 27.0048 3.87728 27.0364 3.87759C27.101 3.87759 27.1578 3.90084 27.2017 3.94217L51.25 26.0658V53.1883Z" fill="black"/>
</svg>
